<?xml version="1.0" encoding="UTF-8"?>
<svg id="Warstwa_2" data-name="Warstwa 2" xmlns="http://www.w3.org/2000/svg" viewBox="0 0 553 523">
  <g fill="white" id="Warstwa_1-2" data-name="Warstwa 1">
    <path d="M358.08,328.84c-2.53-4.37-4.96-8.79-7.6-13.09-4.86-7.92-9.85-15.76-14.74-23.66-4.9-7.92-9.79-15.85-14.6-23.82-8.04-13.33-15.91-26.76-24.05-40.03-4.83-7.88-10.05-15.52-15.43-23.79-5.87,9.51-11.6,18.63-17.17,27.84-8.58,14.21-17,28.53-25.58,42.74-5.87,9.71-11.93,19.31-17.87,28.98-6.73,10.95-13.4,21.94-20.12,32.9-6.97,11.37-13.98,22.71-21.36,34.69H445.06c-.33-1.07-.43-2.08-.91-2.86-5.03-8.24-10.13-16.43-15.18-24.65-4.95-8.06-9.86-16.15-14.78-24.23-8.36-13.73-16.73-27.46-25.06-41.21-6.23-10.29-12.38-20.62-18.6-30.91-6.58-10.87-13.17-21.73-19.82-32.55-5.93-9.65-11.99-19.22-17.91-28.89-6.1-9.97-12.07-20.01-18.12-30.01-6.67-11.01-13.3-22.05-20.1-32.98-2.39-3.84-5.22-7.41-8.22-11.63-3.37,5.81-6.43,11.39-9.78,16.78-7.5,12.05-15.25,23.95-22.69,36.03-4.62,7.51-8.78,15.29-13.3,22.87-6.94,11.64-13.98,23.22-21.01,34.81-5.53,9.1-11.13,18.16-16.66,27.26-6.86,11.29-13.66,22.62-20.54,33.9-6.16,10.1-12.41,20.16-18.61,30.24-6.2,10.08-12.4,20.16-18.55,30.27-6.16,10.13-12.24,20.31-18.4,30.44-6.5,10.69-13.01,21.39-19.6,32.02-2.04,3.29-4.44,6.35-6.55,9.59-.98,1.51-1.66,3.22-2.91,5.69,3.1,.16,5.37,.37,7.64,.37,100.64,.02,201.28,.01,301.93,.01,21.55,0,43.11-.08,64.66,.09,2.92,.02,6.14,.74,8.69,2.12,5.7,3.09,5.74,11.04,.03,14.1-2.69,1.44-6.1,2.14-9.18,2.15-46.33,.13-92.67,.09-139,.09-82.48,0-164.97-.18-247.45,.22-10.63,.05-18.13-6.49-10.77-17.86,4.79-7.39,9.38-14.91,13.92-22.45,4.38-7.26,8.52-14.66,12.87-21.94,6.94-11.61,13.95-23.19,20.98-34.75,6.24-10.26,12.59-20.45,18.84-30.7,5.91-9.69,11.74-19.42,17.62-29.12,6.76-11.15,13.52-22.31,20.31-33.44,5.9-9.67,11.77-19.36,17.76-28.97,7.96-12.77,16.11-25.42,24.01-38.23,4.45-7.21,8.44-14.71,12.88-21.94,7.96-12.96,16.19-25.77,24.15-38.73,4.35-7.08,8.28-14.41,12.58-21.52,2.88-4.76,5.87-9.48,9.18-13.94,3.95-5.33,12.62-4.43,16.45,1.66,3.52,5.6,6.67,11.42,10.09,17.09,5.16,8.55,10.46,17.03,15.61,25.59,8.03,13.33,15.88,26.78,24.03,40.04,8.15,13.25,16.64,26.29,24.84,39.51,4.02,6.48,7.62,13.22,11.55,19.76,5.13,8.55,10.42,17.01,15.6,25.52,8.37,13.75,16.74,27.5,25.08,41.26,6.06,9.99,12.07,20.02,18.12,30.01,6.66,10.99,13.31,21.99,20.03,32.95,3,4.89,6.35,9.57,9.14,14.56,1.09,1.95,1.55,4.52,1.52,6.79-.06,4.13-2.88,6.91-6.95,7.51-1.17,.17-2.37,.13-3.56,.13-99.11,0-198.23,.01-297.34-.03-1.98,0-4.25-.05-5.88-.97-3.52-1.97-6.13-6.68-4.01-10.88,1.83-3.63,3.69-7.25,5.79-10.73,6.11-10.16,12.29-20.28,18.55-30.35,7.76-12.49,15.7-24.87,23.42-37.39,4.18-6.78,8.02-13.77,12.1-20.62,6.32-10.6,12.66-21.19,19.08-31.74,6.86-11.27,13.85-22.46,20.73-33.72,6.09-9.98,11.89-20.13,18.25-29.92,1.73-2.67,4.78-4.82,7.69-6.3,3.76-1.93,8.12,.09,10.82,4.29,4.02,6.25,8,12.52,11.9,18.84,6.31,10.24,12.59,20.49,18.79,30.8,8.91,14.81,17.6,29.75,26.63,44.48,7.24,11.81,14.98,23.32,22.25,35.11,4.71,7.65,9.54,15.31,13.29,23.44,3.47,7.53-.02,13.92-8.65,13.91-48.71-.07-97.42-.02-146.13-.05-4.84,0-7.59-1.81-8.87-5.4-1.42-3.99-.47-8.35,2.75-10.51,1.43-.96,3.42-1.45,5.17-1.52,5.08-.2,10.18-.08,15.27-.08,36.32,0,72.64,0,108.96,0h5.96c.21-.46,.41-.92,.62-1.37Z"/>
  </g>
</svg>